<?xml version="1.0" standalone="no"?>
<!DOCTYPE svg PUBLIC "-//W3C//DTD SVG 20010904//EN"
 "http://www.w3.org/TR/2001/REC-SVG-20010904/DTD/svg10.dtd">
<svg version="1.0" xmlns="http://www.w3.org/2000/svg"
 width="300.000000pt" height="300.000000pt" viewBox="0 0 300.000000 300.000000"
 preserveAspectRatio="xMidYMid meet">
<metadata>
Created by potrace 1.10, written by Peter Selinger 2001-2011
</metadata>
<g transform="translate(0.000000,300.000000) scale(0.100000,-0.100000)"
fill="#000000" stroke="none">
<path d="M1315 2639 c-419 -70 -771 -368 -906 -766 -80 -235 -80 -510 -1 -743
160 -470 593 -780 1092 -780 499 0 932 310 1092 780 58 171 75 393 43 571 -84
482 -470 860 -958 939 -73 12 -291 11 -362 -1z m408 -35 c332 -66 624 -286
777 -584 12 -25 27 -54 32 -64 19 -36 48 -130 69 -219 27 -116 30 -357 5 -462
-54 -225 -140 -390 -284 -546 -175 -189 -444 -323 -697 -347 -243 -22 -438 13
-640 117 -302 156 -505 419 -586 760 -27 113 -29 338 -4 459 89 439 412 774
845 878 135 33 342 36 483 8z"/>
</g>
</svg>
